<?xml version="1.0" encoding="utf-8"?>
<svg version="1.1" xmlns="http://www.w3.org/2000/svg" xmlns:xlink="http://www.w3.org/1999/xlink" x="0px" y="0px"
	 viewBox="0 0 1117.09 1117.09" style="enable-background:new 0 0 1117.09 1117.09;" xml:space="preserve">
<style type="text/css">
	.st0{fill:#ACACAD;}
	.st1{fill:#FCFBF7;stroke:#ACACAD;stroke-width:10;stroke-miterlimit:10;}
	.st2{fill:#FE7AD5;}
</style>
<g id="Normalizado">
	<path class="st0" d="M560.57,50.58c0,0-181.46-122-271.89,90.41c0,0-187.82-23.03-171.45,168.55c0,0-162.83,69.99-91.8,252.07
		c0,0-79.36,161.41,91.29,251.72c0,0-25.06,159.37,171.96,169.86c0,0,80.29,187.5,271.89,90.91c0,0,171.35,106.88,273.66-92.76
		c0,0,164.15,16.51,174.51-172.85c0,0,159.08-89.81,85.15-246.88c0,0,68.85-158.99-91.43-248.94c0,0,42.85-147.64-168.15-172.55
		C834.31,140.11,760.38-56.43,560.57,50.58z"/>
	<path class="st1" d="M558.55,48.59c0,0-171.18-115.03-256.49,85.24c0,0-177.17-21.72-161.73,158.92c0,0-153.61,65.99-86.6,237.67
		c0,0-74.87,152.19,86.11,237.35c0,0-23.64,150.27,162.22,160.16c0,0,75.74,176.79,256.49,85.72c0,0,161.64,100.78,258.15-87.46
		c0,0,154.84,15.57,164.62-162.98c0,0,150.06-84.68,80.33-232.79c0,0,64.95-149.91-86.25-234.72c0,0,40.42-139.21-158.62-162.7
		C816.77,133.01,747.04-52.31,558.55,48.59z"/>
</g>
<g id="Layer_3">
	<path class="st2" d="M679.95,197.71c0,0-73.77-69.13-243.97,24.98S188.02,464.43,201.98,545.56s12.37,175.46,239.61,284.9
		c0,0,150.07,71.96,305.28-21.6c0,0,130.17-81.06,98.8-279.97c-31.37-198.9-258.23-204.11-258.23-204.11s-145.83,2.16-196.23,154.72
		c0,0-27.33,115.05,118.97,158.32c0,0,96.26,32.53,150.54-35.45c0,0,48.93-85.7-63.17-141.75c0,0-18.64-6.44-43.73,8.52
		c0,0-32.57,44.58,38.96,65.42c0,0,7.94-5.69,4.09,14.99c-3.85,20.68-13.08,39.24-29.69,40.47c-16.61,1.23-85.02,13.67-116.96-71.47
		c0,0-4.54-122.65,138.56-162c0,0,207.46,11.8,195.68,256.76C773.5,746.62,648.64,798.55,556.33,788.25s-175.47-51.92-215.9-97.25
		s-86.84-112.13-73.32-178.05c13.52-65.92,35.36-149.57,147.45-224.57s190.87-82.73,190.87-82.73s50.69-5.39,57.45-3.98
		C669.65,203.07,680.78,201.42,679.95,197.71z"/>
</g>
</svg>
