<svg width="145" height="18" viewBox="0 0 145 18" fill="none" xmlns="http://www.w3.org/2000/svg">
<path d="M6.59156 1.42463C8.21956 1.42463 9.64223 1.75463 10.8596 2.41463C12.0916 3.07463 13.0376 3.99129 13.6976 5.16463C14.3576 6.33796 14.6876 7.67263 14.6876 9.16863C14.6876 10.65 14.3576 11.9846 13.6976 13.1726C13.0376 14.3606 12.0916 15.2993 10.8596 15.9886C9.64223 16.6633 8.21956 17.0006 6.59156 17.0006H0.101562V1.42463H6.59156ZM6.15156 12.6446C7.25156 12.6446 8.12423 12.344 8.76956 11.7426C9.4149 11.1413 9.73756 10.2833 9.73756 9.16863C9.73756 8.05396 9.4149 7.19596 8.76956 6.59463C8.12423 5.99329 7.25156 5.69263 6.15156 5.69263H4.98556V12.6446H6.15156Z" fill="url(#paint0_linear_2053_5547)"/>
<path d="M26.4392 14.6466H21.2472L20.4772 17.0006H15.3512L21.0492 1.42463H26.6812L32.3572 17.0006H27.2092L26.4392 14.6466ZM25.2512 10.9726L23.8432 6.63863L22.4352 10.9726H25.2512Z" fill="url(#paint1_linear_2053_5547)"/>
<path d="M45.6988 1.42463V5.29663H41.5628V17.0006H36.6788V5.29663H32.5868V1.42463H45.6988Z" fill="url(#paint2_linear_2053_5547)"/>
<path d="M59.2554 1.42463V5.29663H55.1194V17.0006H50.2354V5.29663H46.1434V1.42463H59.2554Z" fill="url(#paint3_linear_2053_5547)"/>
<path d="M65.4641 5.31863V7.23263H70.3041V10.9066H65.4641V13.1066H70.9641V17.0006H60.5801V1.42463H70.9641V5.31863H65.4641Z" fill="url(#paint4_linear_2053_5547)"/>
<path d="M83.2327 9.01463C84.1714 9.23463 84.8974 9.68929 85.4107 10.3786C85.9387 11.0533 86.2027 11.838 86.2027 12.7326C86.2027 14.0966 85.748 15.1526 84.8387 15.9006C83.944 16.634 82.6534 17.0006 80.9667 17.0006H72.8047V1.42463H80.7467C82.3307 1.42463 83.5774 1.76929 84.4867 2.45863C85.396 3.14796 85.8507 4.15263 85.8507 5.47263C85.8507 6.38196 85.6087 7.15196 85.1247 7.78263C84.6554 8.39863 84.0247 8.80929 83.2327 9.01463ZM77.6887 7.49663H79.5807C80.0207 7.49663 80.3434 7.40863 80.5487 7.23263C80.7687 7.05663 80.8787 6.78529 80.8787 6.41863C80.8787 6.03729 80.7687 5.75863 80.5487 5.58262C80.3434 5.39196 80.0207 5.29663 79.5807 5.29663H77.6887V7.49663ZM79.9107 13.0846C80.3507 13.0846 80.6734 13.004 80.8787 12.8426C81.0987 12.6666 81.2087 12.388 81.2087 12.0066C81.2087 11.2586 80.776 10.8846 79.9107 10.8846H77.6887V13.0846H79.9107Z" fill="white"/>
<path d="M97.8317 14.6466H92.6397L91.8698 17.0006H86.7438L92.4417 1.42463H98.0738L103.75 17.0006H98.6018L97.8317 14.6466ZM96.6438 10.9726L95.2357 6.63863L93.8278 10.9726H96.6438Z" fill="white"/>
<path d="M119.819 1.42463L114.231 12.2706V17.0006H109.347V12.2706L103.759 1.42463H109.347L111.833 6.94663L114.319 1.42463H119.819Z" fill="white"/>
<path d="M128.52 17.1546C127.053 17.1546 125.704 16.81 124.472 16.1206C123.254 15.4313 122.286 14.478 121.568 13.2606C120.849 12.0433 120.49 10.672 120.49 9.14663C120.49 7.62129 120.849 6.24996 121.568 5.03263C122.286 3.81529 123.254 2.86929 124.472 2.19463C125.704 1.50529 127.053 1.16063 128.52 1.16063C129.986 1.16063 131.328 1.50529 132.546 2.19463C133.763 2.86929 134.724 3.81529 135.428 5.03263C136.146 6.24996 136.506 7.62129 136.506 9.14663C136.506 10.672 136.146 12.0433 135.428 13.2606C134.724 14.478 133.756 15.4313 132.524 16.1206C131.306 16.81 129.972 17.1546 128.52 17.1546ZM128.52 12.6006C129.488 12.6006 130.236 12.2926 130.764 11.6766C131.292 11.046 131.556 10.2026 131.556 9.14663C131.556 8.07596 131.292 7.23263 130.764 6.61663C130.236 5.98596 129.488 5.67063 128.52 5.67063C127.537 5.67063 126.782 5.98596 126.254 6.61663C125.726 7.23263 125.462 8.07596 125.462 9.14663C125.462 10.2026 125.726 11.046 126.254 11.6766C126.782 12.2926 127.537 12.6006 128.52 12.6006Z" fill="white"/>
<path d="M144.846 0.390625L144.274 10.8186H140.094L139.522 0.390625H144.846ZM142.184 17.1766C141.333 17.1766 140.651 16.9493 140.138 16.4946C139.624 16.04 139.368 15.468 139.368 14.7786C139.368 14.0746 139.624 13.4953 140.138 13.0406C140.651 12.5713 141.333 12.3366 142.184 12.3366C143.02 12.3366 143.694 12.5713 144.208 13.0406C144.721 13.4953 144.978 14.0746 144.978 14.7786C144.978 15.468 144.721 16.04 144.208 16.4946C143.694 16.9493 143.02 17.1766 142.184 17.1766Z" fill="white"/>
<defs>
<linearGradient id="paint0_linear_2053_5547" x1="-36.1174" y1="-6.95326" x2="65.0243" y2="95.843" gradientUnits="userSpaceOnUse">
<stop stop-color="#FF0C8F"/>
<stop offset="1" stop-color="#FFB31E"/>
</linearGradient>
<linearGradient id="paint1_linear_2053_5547" x1="-36.1174" y1="-6.95326" x2="65.0243" y2="95.843" gradientUnits="userSpaceOnUse">
<stop stop-color="#FF0C8F"/>
<stop offset="1" stop-color="#FFB31E"/>
</linearGradient>
<linearGradient id="paint2_linear_2053_5547" x1="-36.1174" y1="-6.95326" x2="65.0243" y2="95.843" gradientUnits="userSpaceOnUse">
<stop stop-color="#FF0C8F"/>
<stop offset="1" stop-color="#FFB31E"/>
</linearGradient>
<linearGradient id="paint3_linear_2053_5547" x1="-36.1174" y1="-6.95326" x2="65.0243" y2="95.843" gradientUnits="userSpaceOnUse">
<stop stop-color="#FF0C8F"/>
<stop offset="1" stop-color="#FFB31E"/>
</linearGradient>
<linearGradient id="paint4_linear_2053_5547" x1="-36.1174" y1="-6.95326" x2="65.0243" y2="95.843" gradientUnits="userSpaceOnUse">
<stop stop-color="#FF0C8F"/>
<stop offset="1" stop-color="#FFB31E"/>
</linearGradient>
</defs>
</svg>
